# wavefront obj file written by the visualization toolkit

mtllib segmentation_4.mtl

v 147 115 125.5
v 148 115 125.5
v 146 113 127
v 147 113 127
v 148 113 127
v 145 114 127
v 146 114 127
v 147 114 127
v 148 114 127
v 149 114 127
v 146 115 127
v 149 115 127
v 145 112 128.5
v 146 112 128.5
v 147 112 128.5
v 148 112 128.5
v 149 112 128.5
v 145 113 128.5
v 149 113 128.5
v 150 113 128.5
v 144 114 128.5
v 150 114 128.5
v 145 115 128.5
v 147 115 127
v 148 115 127
v 146 116 128.5
v 147 116 128.5
v 148 116 128.5
v 147 110 130
v 144 111 130
v 145 111 130
v 146 111 130
v 147 111 130
v 144 112 130
v 144 113 130
v 148 113 128.5
v 148 114 128.5
v 149 114 128.5
v 144 115 130
v 148 115 128.5
v 149 115 128.5
v 145 116 130
v 147 117 130
v 143 112 131.5
v 145 112 130
v 146 112 130
v 147 112 130
v 143 113 131.5
v 145 113 130
v 146 113 130
v 147 113 130
v 144 114 130
v 143 114 131.5
v 145 114 130
v 146 114 130
v 147 114 130
v 145 115 130
v 146 115 130
v 147 115 130
v 146 116 130
v 147 116 130
v 144 111 131.5
v 143 111 133
v 144 112 131.5
v 142 113 133
v 144 113 131.5
v 142 114 133
v 144 114 131.5
v 144 115 131.5
v 143 115 133
v 142 110 134.5
v 142 111 134.5
v 143 112 133
v 142 112 134.5
v 141 113 134.5
v 143 113 133
v 143 114 133
v 142 109 136
v 141 112 136
v 140 113 136
v 142 113 134.5
v 142 114 134.5
v 141 114 136
v 142 115 136
v 142 110 136
v 141 110 137.5
v 140 111 137.5
v 142 111 136
v 141 111 137.5
v 140 112 137.5
v 142 112 136
v 142 113 136
v 142 114 136
v 139 112 139
v 141 112 137.5
v 140 113 137.5
v 139 113 139
v 141 113 137.5
v 141 114 137.5
v 140 114 139
v 141 115 139
v 141 110 139
v 140 111 139
v 141 111 139
v 141 112 139
v 141 113 139
v 141 114 139
v 140 115 140.5
v 141 110 140.5
v 140 111 140.5
v 141 111 140.5
v 140 112 140.5
v 141 112 140.5
v 140 113 140.5
v 141 113 140.5
v 140 114 140.5
v 141 114 140.5
v 141 115 140.5
v 141 110 142
v 141 109 143.5
v 140 111 142
v 141 111 142
v 140 112 142
v 141 112 142
v 140 113 142
v 141 113 142
v 140 114 142
v 141 114 142
v 140 115 142
v 141 115 142
v 141 110 143.5
v 141 111 143.5
v 141 112 143.5
v 141 113 143.5
v 141 114 143.5
v 140 115 143.5
v 141 115 143.5
v 141 110 145
v 141 111 145
v 141 112 145
v 141 113 145
v 141 114 145
v 141 115 145
v 141 114 146.5
v 141 115 146.5
v 147 115 125.5
v 148 115 125.5
v 146 113 127
v 147 113 127
v 148 113 127
v 145 114 127
v 145 114 127
v 147 114 127
v 148 114 127
v 149 114 127
v 149 114 127
v 149 114 127
v 146 115 127
v 146 115 127
v 149 115 127
v 149 115 127
v 149 115 127
v 145 112 128.5
v 146 112 128.5
v 148 112 128.5
v 148 112 128.5
v 148 112 128.5
v 149 112 128.5
v 145 113 128.5
v 149 113 128.5
v 149 113 128.5
v 149 113 128.5
v 149 113 128.5
v 149 113 128.5
v 149 113 128.5
v 149 113 128.5
v 150 113 128.5
v 144 114 128.5
v 144 114 128.5
v 150 114 128.5
v 150 114 128.5
v 150 114 128.5
v 148 116 128.5
v 148 116 128.5
v 144 111 130
v 144 111 130
v 145 111 130
v 145 111 130
v 145 111 130
v 145 111 130
v 146 111 130
v 146 111 130
v 147 111 130
v 147 111 130
v 147 111 130
v 144 112 130
v 144 112 130
v 148 113 128.5
v 148 114 128.5
v 144 115 130
v 148 115 128.5
v 149 115 128.5
v 149 115 128.5
v 149 115 128.5
v 149 115 128.5
v 145 116 130
v 145 116 130
v 145 116 130
v 147 117 130
v 147 117 130
v 143 112 131.5
v 143 112 131.5
v 143 112 131.5
v 145 112 130
v 147 112 130
v 145 113 130
v 147 113 130
v 143 114 131.5
v 143 114 131.5
v 143 114 131.5
v 145 114 130
v 147 114 130
v 145 115 130
v 147 115 130
v 146 116 130
v 146 116 130
v 147 116 130
v 144 111 131.5
v 144 111 131.5
v 144 111 131.5
v 144 111 131.5
v 144 112 131.5
v 144 112 131.5
v 142 113 133
v 142 113 133
v 142 113 133
v 142 113 133
v 142 113 133
v 144 114 131.5
v 144 114 131.5
v 144 115 131.5
v 144 115 131.5
v 144 115 131.5
v 144 115 131.5
v 143 115 133
v 142 110 134.5
v 142 111 134.5
v 142 111 134.5
v 142 111 134.5
v 143 112 133
v 143 112 133
v 143 112 133
v 143 112 133
v 143 112 133
v 142 112 134.5
v 142 112 134.5
v 141 113 134.5
v 143 113 133
v 143 113 133
v 143 114 133
v 141 112 136
v 141 112 136
v 141 112 136
v 140 113 136
v 140 113 136
v 142 113 134.5
v 142 114 134.5
v 142 114 134.5
v 142 114 134.5
v 142 115 136
v 142 110 136
v 142 110 136
v 142 110 136
v 141 110 137.5
v 141 110 137.5
v 140 111 137.5
v 140 111 137.5
v 142 111 136
v 142 111 136
v 142 111 136
v 142 111 136
v 142 111 136
v 141 111 137.5
v 141 111 137.5
v 140 112 137.5
v 140 112 137.5
v 140 112 137.5
v 142 112 136
v 142 112 136
v 139 112 139
v 141 112 137.5
v 139 113 139
v 141 114 137.5
v 140 114 139
v 140 114 139
v 141 115 139
v 141 115 139
v 141 110 139
v 140 111 139
v 140 111 139
v 140 111 139
v 140 111 139
v 140 115 140.5
v 140 115 140.5
v 141 110 140.5
v 140 111 140.5
v 141 115 140.5
v 141 110 142
v 141 110 142
v 141 110 142
v 141 109 143.5
v 140 115 142
v 141 115 142
v 141 110 143.5
v 141 110 143.5
v 141 110 143.5
v 141 110 143.5
v 141 110 143.5
v 141 110 143.5
v 141 110 143.5
v 141 111 143.5
v 141 111 143.5
v 141 111 143.5
v 141 111 143.5
v 141 111 143.5
v 141 111 143.5
v 141 111 143.5
v 141 111 143.5
v 141 112 143.5
v 141 112 143.5
v 141 112 143.5
v 141 112 143.5
v 141 112 143.5
v 141 112 143.5
v 141 112 143.5
v 141 113 143.5
v 141 113 143.5
v 141 113 143.5
v 141 113 143.5
v 141 113 143.5
v 141 113 143.5
v 141 113 143.5
v 141 114 143.5
v 141 114 143.5
v 141 114 143.5
v 141 114 143.5
v 141 114 143.5
v 141 114 143.5
v 140 115 143.5
v 140 115 143.5
v 141 115 143.5
v 141 110 145
v 141 110 145
v 141 110 145
v 141 111 145
v 141 111 145
v 141 111 145
v 141 112 145
v 141 112 145
v 141 112 145
v 141 113 145
v 141 113 145
v 141 113 145
v 141 113 145
v 141 113 145
v 141 114 145
v 141 114 145
v 141 114 145
v 141 114 145
v 141 114 145
v 141 114 145
v 141 114 145
v 141 115 145
v 141 115 145
v 141 115 145
v 141 115 145
v 141 115 145
v 141 115 145
v 141 114 146.5
v 141 114 146.5
v 141 114 146.5
vn -0.340069 -0.782461 -0.52164
vn 0.225083 -0.8107 -0.540466
vn 0 0 -1
vn 0 0 -1
vn 0 0 -1
vn 0 0 -1
vn 0 0 -1
vn 0 0 -1
vn 0 0 -1
vn 0 0 -1
vn 0 0 -1
vn 0.639602 -0.639602 -0.426401
vn 0 0 -1
vn -0.110199 -0.826983 -0.551322
vn 0 -0.83205 -0.5547
vn 0.225083 -0.8107 -0.540466
vn 0 0 -1
vn -0.704671 -0.531738 -0.469781
vn 0.639602 -0.639602 -0.426401
vn 0 0 -1
vn -0.639602 -0.639602 -0.426401
vn 0.639602 -0.639602 -0.426401
vn -0.639602 0.639602 -0.426401
vn 0 0.937826 -0.347105
vn 0.114305 0.977851 -0.175335
vn -0.282392 0.907585 -0.310715
vn -0.112916 0.877024 -0.466988
vn 0.167321 0.82032 -0.54688
vn 0 0 -1
vn 0 0 -1
vn -0.225083 -0.8107 -0.540466
vn 0 0 -1
vn 0 0 -1
vn -0.800833 -0.271346 -0.533889
vn -0.871525 -0.096111 -0.480839
vn 0.83205 0 0.5547
vn 0.83205 0 0.5547
vn 0 0 1
vn -1 0 0
vn 0.83205 0 0.5547
vn 0.639602 0.639602 -0.426401
vn -0.676613 0.676613 -0.290497
vn -0.340069 0.782461 -0.52164
vn -0.903682 -0.23385 -0.358709
vn 0.83205 0 0.5547
vn 0 0 1
vn 0.83205 0 0.5547
vn -0.871525 -0.096111 -0.480839
vn 0.83205 0 0.5547
vn 0 0 1
vn 0.83205 0 0.5547
vn -0.967371 0.138368 -0.212246
vn -0.800833 0.271346 -0.533889
vn 0.83205 0 0.5547
vn 0 0 1
vn 0.83205 0 0.5547
vn 0.83205 0 0.5547
vn 0 0 1
vn 0.83205 0 0.5547
vn 0 1 0
vn 0.83205 0 0.5547
vn 0 -1 0
vn -1 0 0
vn 0.83205 0 0.5547
vn -0.903682 -0.23385 -0.358709
vn 0.83205 0 0.5547
vn -0.891095 0.299203 -0.341214
vn 0.83205 0 0.5547
vn -0.639602 0.639602 -0.426401
vn -0.690024 0.690024 -0.218479
vn -1 0 0
vn -1 0 0
vn -1 0 0
vn -0.639602 -0.639602 -0.426401
vn -0.639602 -0.639602 -0.426401
vn 0.83205 0 0.5547
vn 0.889883 0 0.456188
vn -1 0 0
vn -0.639602 -0.639602 -0.426401
vn -0.639602 -0.639602 -0.426401
vn 0.981353 0 0.192213
vn -0.639602 0.639602 -0.426401
vn -0.690024 0.690024 -0.218479
vn -0.690024 0.690024 -0.218479
vn -1 0 0
vn 0 0 -1
vn 0 0 -1
vn -1 0 0
vn 0 0 -1
vn -0.639602 -0.639602 -0.426401
vn 0.989685 0 0.14326
vn 0.957092 0 0.289784
vn 0.937826 0 0.347105
vn -0.782461 -0.340069 -0.52164
vn 0.981353 0 0.192213
vn -0.830181 0.494098 -0.258201
vn -0.8107 0.225083 -0.540466
vn 0.957092 0 0.289784
vn -0.690024 0.690024 -0.218479
vn -0.639602 0.639602 -0.426401
vn -0.639602 0.639602 -0.426401
vn -0.707107 -0.707107 0
vn -0.707107 -0.707107 0
vn 1 0 0
vn 1 0 0
vn 1 0 0
vn 1 0 0
vn -1 0 0
vn -0.707107 -0.707107 0
vn -0.707107 -0.707107 0
vn 1 0 0
vn -0.977851 -0.114305 0.175335
vn 1 0 0
vn -0.966893 0.0981054 0.235569
vn 1 0 0
vn -1 0 0
vn 1 0 0
vn 1 0 0
vn -0.699608 -0.699608 0.145249
vn 1 0 0
vn -0.926016 -0.248877 0.283822
vn 1 0 0
vn -0.957092 0 0.289784
vn 1 0 0
vn -0.957092 0 0.289784
vn 1 0 0
vn -0.977851 -0.114305 0.175335
vn 1 0 0
vn -1 0 0
vn 1 0 0
vn 1 0 0
vn -0.782461 -0.340069 0.52164
vn -0.83205 0 0.5547
vn -0.83205 0 0.5547
vn -0.782461 -0.340069 0.52164
vn -1 0 0
vn 1 0 0
vn 1 0 0
vn -1 0 0
vn -1 0 0
vn -1 0 0
vn -1 0 0
vn -0.639602 -0.639602 0.426401
vn -1 0 0
vn -1 0 0
vn 0 1 0
vn 0 1 0
vn -0.450167 -0.742975 -0.495317
vn 0 -0.83205 -0.5547
vn 0.340069 -0.782461 -0.52164
vn -0.639602 -0.639602 -0.426401
vn -0.639602 0.639602 -0.426401
vn -0.225083 -0.8107 -0.540466
vn 0.340069 -0.782461 -0.52164
vn 0.639602 -0.639602 -0.426401
vn 0.639602 0.639602 -0.426401
vn 1 0 0
vn -0.639602 -0.639602 -0.426401
vn -0.278905 0.859758 -0.427819
vn 0 0 -1
vn 0 1 0
vn 1 0 0
vn -0.669415 -0.427636 -0.607463
vn 0 0 -1
vn 0 0 -1
vn 0.83205 0 0.5547
vn 0 0 1
vn 0 0 -1
vn 0 0 -1
vn 0 0 -1
vn 0 0 -1
vn 0 0 -1
vn 0 0 -1
vn 0 0 1
vn 0 0 -1
vn 0 0 -1
vn 0 0 -1
vn -0.639602 0.639602 -0.426401
vn -1 0 0
vn 0 0 -1
vn 0.639602 0.639602 -0.426401
vn 0 0 1
vn 0.83205 0 0.5547
vn 0 0 1
vn 0 -1 0
vn -1 0 0
vn 0 0 -1
vn 0 -1 0
vn 0.83205 0 0.5547
vn 0 0 1
vn 0 -0.83205 -0.5547
vn 0 0 1
vn 0 -0.83205 -0.5547
vn 0.83205 0 0.5547
vn 0 0 1
vn 0 0 -1
vn -1 0 0
vn 0 0 1
vn 0 0 1
vn -0.676613 0.676613 -0.290497
vn 0 0 1
vn 1 0 0
vn 0.639602 0.639602 -0.426401
vn 0 1 0
vn 0 0 1
vn 0 1 0
vn 0.83205 0 0.5547
vn 0 0 1
vn 0.83205 0 0.5547
vn 0 0 1
vn -1 0 0
vn 0 -1 0
vn 0 0 1
vn 0 0 1
vn 0 0 1
vn 0 0 1
vn 0 0 1
vn 0 0 1
vn 0 1 0
vn 1 0 0
vn 0 0 1
vn 0 0 1
vn 0 0 1
vn 0 0 1
vn -0.639602 0.639602 -0.426401
vn 0 0 1
vn 0 0 1
vn -0.639602 -0.639602 -0.426401
vn -1 0 0
vn 0.83205 0 0.5547
vn 0 0 1
vn 0 -1 0
vn 0 0 1
vn -0.639602 -0.639602 -0.426401
vn 1 0 0
vn 0 -1 0
vn 0 0 1
vn -0.639602 0.639602 -0.426401
vn 0 0 1
vn 0 1 0
vn -1 0 0
vn 0.83205 0 0.5547
vn -0.707107 0.707107 0
vn 0 0 1
vn 0.957092 0 0.289784
vn -1 0 0
vn -1 0 0
vn -1 0 0
vn -1 0 0
vn 0 -1 0
vn -0.639602 -0.639602 -0.426401
vn -1 0 0
vn 0.83205 0 0.5547
vn 0 0 1
vn 1 0 0
vn -1 0 0
vn -0.639602 0.639602 -0.426401
vn 0 -1 0
vn 0 0 1
vn 0 1 0
vn 1 0 0
vn 0 -1 0
vn 0 0 1
vn -0.690024 0.690024 -0.218479
vn -1 0 0
vn 0 -1 0
vn -1 0 0
vn 0.972858 0 0.231403
vn -0.707107 0.707107 0
vn 0.957092 0 0.289784
vn -1 0 0
vn -1 0 0
vn -1 0 0
vn -0.707107 -0.707107 0
vn 1 0 0
vn -0.707107 -0.707107 0
vn -1 0 0
vn -0.639602 -0.639602 -0.426401
vn -1 0 0
vn -1 0 0
vn 1 0 0
vn 0 0 1
vn -0.639602 -0.639602 -0.426401
vn 1 0 0
vn 0 0 -1
vn -0.893146 -0.172915 -0.415199
vn -1 0 0
vn 0 -1 0
vn 0 0 1
vn -0.8107 -0.225083 0.540466
vn 0 -1 0
vn -0.782461 0.340069 0.52164
vn 0.972858 0 0.231403
vn -0.639602 0.639602 0.426401
vn -1 0 0
vn 1 0 0
vn 0 1 0
vn 1 0 0
vn -0.639602 -0.639602 -0.426401
vn -1 0 0
vn -0.639602 -0.639602 0.426401
vn -1 0 0
vn -0.639602 0.639602 -0.426401
vn 0 1 0
vn 1 0 0
vn -1 0 0
vn 0 1 0
vn 1 0 0
vn 1 0 0
vn -1 0 0
vn 1 0 0
vn 0 1 0
vn 0 1 0
vn 1 0 0
vn -1 0 0
vn 1 0 0
vn 1 0 0
vn 1 0 0
vn -1 0 0
vn -1 0 0
vn -1 0 0
vn 1 0 0
vn -1 0 0
vn -1 0 0
vn -1 0 0
vn -1 0 0
vn -1 0 0
vn -1 0 0
vn 1 0 0
vn -1 0 0
vn -1 0 0
vn -1 0 0
vn -1 0 0
vn -1 0 0
vn -1 0 0
vn 1 0 0
vn -1 0 0
vn -1 0 0
vn -1 0 0
vn -1 0 0
vn -1 0 0
vn -1 0 0
vn 1 0 0
vn -1 0 0
vn -1 0 0
vn -1 0 0
vn -1 0 0
vn -1 0 0
vn -0.639602 -0.639602 0.426401
vn 0 1 0
vn 0 1 0
vn -1 0 0
vn -1 0 0
vn -1 0 0
vn -1 0 0
vn -1 0 0
vn -1 0 0
vn -1 0 0
vn -1 0 0
vn -1 0 0
vn -1 0 0
vn -1 0 0
vn -1 0 0
vn -1 0 0
vn -1 0 0
vn -1 0 0
vn -1 0 0
vn 1 0 0
vn -1 0 0
vn -1 0 0
vn -1 0 0
vn -1 0 0
vn -1 0 0
vn 1 0 0
vn 0 1 0
vn -1 0 0
vn -1 0 0
vn -1 0 0
vn -1 0 0
vn -1 0 0
vn -1 0 0

g grp1
usemtl mtl1
f 3//3 6//6 7//7 
f 4//4 3//3 8//8 
f 8//8 3//3 7//7 
f 5//5 4//4 9//9 
f 9//9 4//4 8//8 
f 10//10 5//5 9//9 
f 6//6 11//11 7//7 
f 1//1 153//153 158//158 
f 8//8 7//7 11//11 
f 2//2 153//153 1//1 
f 154//154 153//153 2//2 
f 2//2 12//12 154//154 
f 160//160 10//10 9//9 
f 146//146 159//159 24//24 
f 147//147 146//146 25//25 
f 146//146 24//24 25//25 
f 161//161 147//147 25//25 
f 148//148 14//14 18//18 
f 164//164 13//13 169//169 
f 149//149 14//14 148//148 
f 15//15 14//14 149//149 
f 150//150 15//15 149//149 
f 16//16 15//15 150//150 
f 150//150 19//19 16//16 
f 170//170 17//17 165//165 
f 20//20 168//168 171//171 
f 18//18 21//21 151//151 
f 148//148 18//18 151//151 
f 150//150 155//155 19//19 
f 155//155 22//22 19//19 
f 180//180 177//177 172//172 
f 152//152 178//178 23//23 
f 152//152 23//23 159//159 
f 181//181 156//156 41//41 
f 157//157 162//162 202//202 
f 159//159 23//23 26//26 
f 159//159 27//27 24//24 
f 26//26 27//27 159//159 
f 24//24 28//28 25//25 
f 27//27 28//28 24//24 
f 28//28 203//203 25//25 
f 204//204 161//161 25//25 
f 29//29 32//32 33//33 
f 163//163 31//31 34//34 
f 187//187 30//30 196//196 
f 14//14 31//31 163//163 
f 191//191 31//31 14//14 
f 15//15 191//191 14//14 
f 193//193 191//191 15//15 
f 193//193 15//15 16//16 
f 194//194 166//166 47//47 
f 163//163 35//35 18//18 
f 34//34 35//35 163//163 
f 36//36 47//47 166//166 
f 51//51 47//47 36//36 
f 165//165 173//173 17//17 
f 174//174 198//198 167//167 
f 175//175 20//20 168//168 
f 179//179 35//35 52//52 
f 18//18 35//35 21//21 
f 37//37 51//51 36//36 
f 56//56 51//51 37//37 
f 174//174 38//38 198//198 
f 38//38 199//199 198//198 
f 176//176 180//180 177//177 
f 182//182 38//38 174//174 
f 39//39 179//179 52//52 
f 178//178 200//200 23//23 
f 40//40 56//56 37//37 
f 59//59 56//56 40//40 
f 38//38 205//205 199//199 
f 205//205 201//201 199//199 
f 182//182 205//205 38//38 
f 23//23 200//200 42//42 
f 23//23 42//42 26//26 
f 183//183 59//59 40//40 
f 61//61 59//59 183//183 
f 205//205 184//184 201//201 
f 26//26 206//206 60//60 
f 43//43 27//27 225//225 
f 27//27 26//26 60//60 
f 183//183 209//209 61//61 
f 28//28 27//27 43//43 
f 188//188 62//62 185//185 
f 33//33 29//29 32//32 
f 44//44 34//34 228//228 
f 197//197 186//186 229//229 
f 45//45 230//230 189//189 
f 64//64 230//230 45//45 
f 192//192 46//46 190//190 
f 46//46 214//214 190//190 
f 195//195 215//215 192//192 
f 215//215 46//46 192//192 
f 34//34 48//48 35//35 
f 44//44 48//48 34//34 
f 49//49 64//64 45//45 
f 66//66 64//64 49//49 
f 46//46 50//50 214//214 
f 50//50 216//216 214//214 
f 215//215 217//217 46//46 
f 217//217 50//50 46//46 
f 35//35 53//53 52//52 
f 48//48 53//53 35//35 
f 54//54 66//66 49//49 
f 68//68 66//66 54//54 
f 50//50 55//55 216//216 
f 55//55 221//221 216//216 
f 217//217 222//222 50//50 
f 222//222 55//55 50//50 
f 53//53 69//69 52//52 
f 241//241 39//39 52//52 
f 57//57 68//68 54//54 
f 242//242 68//68 57//57 
f 55//55 58//58 221//221 
f 58//58 223//223 221//221 
f 222//222 224//224 55//55 
f 224//224 58//58 55//55 
f 207//207 242//242 57//57 
f 42//42 200//200 243//243 
f 58//58 226//226 223//223 
f 226//226 208//208 223//223 
f 224//224 227//227 58//58 
f 227//227 226//226 58//58 
f 210//210 226//226 227//227 
f 211//211 63//63 73//73 
f 73//73 211//211 63//63 
f 250//250 212//212 232//232 
f 233//233 213//213 231//231 
f 65//65 48//48 251//251 
f 48//48 44//44 252//252 
f 66//66 253//253 64//64 
f 76//76 253//253 66//66 
f 48//48 67//67 53//53 
f 65//65 67//67 48//48 
f 68//68 76//76 66//66 
f 77//77 76//76 68//68 
f 53//53 67//67 70//70 
f 244//244 218//218 239//239 
f 240//240 219//219 260//260 
f 77//77 220//220 245//245 
f 74//74 75//75 234//234 
f 255//255 235//235 81//81 
f 266//266 236//236 258//258 
f 259//259 237//237 254//254 
f 257//257 82//82 238//238 
f 267//267 67//67 65//65 
f 77//77 81//81 76//76 
f 268//268 81//81 77//77 
f 245//245 268//268 77//77 
f 70//70 67//67 269//269 
f 71//71 78//78 85//85 
f 85//85 71//71 78//78 
f 246//246 271//271 72//72 
f 272//272 88//88 247//247 
f 273//273 72//72 246//246 
f 88//88 248//248 272//272 
f 79//79 74//74 278//278 
f 256//256 249//249 279//279 
f 280//280 256//256 249//249 
f 281//281 255//255 91//91 
f 79//79 80//80 75//75 
f 74//74 79//79 75//75 
f 255//255 81//81 91//91 
f 91//91 81//81 92//92 
f 257//257 264//264 83//83 
f 257//257 83//83 82//82 
f 81//81 268//268 92//92 
f 92//92 268//268 93//93 
f 82//82 83//83 84//84 
f 268//268 270//270 93//93 
f 86//86 87//87 89//89 
f 79//79 283//283 90//90 
f 89//89 87//87 285//285 
f 284//284 261//261 95//95 
f 291//291 262//262 288//288 
f 289//289 263//263 282//282 
f 265//265 286//286 96//96 
f 79//79 90//90 80//80 
f 92//92 95//95 91//91 
f 98//98 95//95 92//92 
f 96//96 83//83 264//264 
f 99//99 83//83 96//96 
f 93//93 98//98 92//92 
f 293//293 98//98 93//93 
f 270//270 293//293 93//93 
f 84//84 83//83 99//99 
f 102//102 276//276 274//274 
f 103//103 276//276 102//102 
f 275//275 284//284 298//298 
f 298//298 284//284 104//104 
f 94//94 286//286 299//299 
f 287//287 277//277 300//300 
f 284//284 95//95 104//104 
f 104//104 95//95 105//105 
f 286//286 97//97 96//96 
f 94//94 97//97 286//286 
f 95//95 98//98 105//105 
f 105//105 98//98 106//106 
f 96//96 97//97 100//100 
f 96//96 100//100 99//99 
f 98//98 293//293 106//106 
f 106//106 293//293 107//107 
f 99//99 100//100 101//101 
f 293//293 296//296 107//107 
f 109//109 103//103 102//102 
f 110//110 103//103 109//109 
f 298//298 104//104 305//305 
f 305//305 104//104 111//111 
f 290//290 301//301 112//112 
f 302//302 306//306 112//112 
f 104//104 105//105 111//111 
f 111//111 105//105 113//113 
f 114//114 290//290 112//112 
f 292//292 290//290 114//114 
f 105//105 106//106 113//113 
f 113//113 106//106 115//115 
f 292//292 114//114 294//294 
f 114//114 116//116 295//295 
f 106//106 107//107 115//115 
f 115//115 107//107 117//117 
f 108//108 295//295 116//116 
f 100//100 303//303 101//101 
f 107//107 296//296 117//117 
f 117//117 296//296 118//118 
f 297//297 304//304 307//307 
f 119//119 110//110 109//109 
f 121//121 110//110 119//119 
f 305//305 111//111 308//308 
f 308//308 111//111 122//122 
f 306//306 121//121 112//112 
f 121//121 123//123 112//112 
f 111//111 113//113 122//122 
f 122//122 113//113 124//124 
f 112//112 123//123 114//114 
f 123//123 125//125 114//114 
f 113//113 115//115 124//124 
f 124//124 115//115 126//126 
f 114//114 125//125 116//116 
f 125//125 127//127 116//116 
f 115//115 117//117 126//126 
f 126//126 117//117 128//128 
f 116//116 127//127 108//108 
f 127//127 129//129 108//108 
f 117//117 118//118 128//128 
f 128//128 118//118 130//130 
f 307//307 304//304 313//313 
f 304//304 312//312 313//313 
f 131//131 120//120 309//309 
f 120//120 309//309 314//314 
f 121//121 119//119 132//132 
f 310//310 315//315 321//321 
f 308//308 122//122 316//316 
f 316//316 122//122 322//322 
f 133//133 121//121 132//132 
f 123//123 121//121 133//133 
f 122//122 124//124 322//322 
f 322//322 124//124 329//329 
f 134//134 123//123 133//133 
f 125//125 123//123 134//134 
f 124//124 126//126 329//329 
f 329//329 126//126 336//336 
f 135//135 125//125 134//134 
f 127//127 125//125 135//135 
f 126//126 128//128 336//336 
f 336//336 128//128 343//343 
f 127//127 136//136 129//129 
f 135//135 349//349 127//127 
f 128//128 130//130 343//343 
f 343//343 130//130 137//137 
f 313//313 312//312 351//351 
f 312//312 350//350 351//351 
f 317//317 138//138 311//311 
f 138//138 311//311 318//318 
f 319//319 352//352 323//323 
f 353//353 139//139 324//324 
f 354//354 325//325 320//320 
f 139//139 326//326 353//353 
f 327//327 355//355 330//330 
f 356//356 140//140 331//331 
f 357//357 332//332 328//328 
f 140//140 333//333 356//356 
f 334//334 358//358 337//337 
f 359//359 141//141 338//338 
f 360//360 339//339 335//335 
f 141//141 340//340 359//359 
f 341//341 361//361 344//344 
f 362//362 142//142 345//345 
f 363//363 346//346 342//342 
f 366//366 347//347 364//364 
f 349//349 135//135 143//143 
f 348//348 367//367 373//373 
f 343//343 137//137 368//368 
f 368//368 137//137 374//374 
f 350//350 375//375 351//351 
f 365//365 144//144 369//369 
f 370//370 365//365 144//144 
f 371//371 379//379 376//376 
f 380//380 145//145 377//377 
f 381//381 378//378 372//372 
f 145//145 377//377 380//380 
